<mxfile host="app.diagrams.net" agent="Mozilla/5.0 (Macintosh; Intel Mac OS X 10_15_7) AppleWebKit/537.36 (KHTML, like Gecko) Chrome/131.0.0.0 Safari/537.36" version="24.8.6">
  <diagram name="Page-1" id="XtsJflCK8Qknw-6YJTwu">
    <mxGraphModel dx="1330" dy="785" grid="1" gridSize="10" guides="1" tooltips="1" connect="1" arrows="1" fold="1" page="1" pageScale="1" pageWidth="1654" pageHeight="1169" math="0" shadow="0">
      <root>
        <mxCell id="0" />
        <mxCell id="1" parent="0" />
        <mxCell id="tW2J5uv5h3DvpU_1txgO-5" style="edgeStyle=orthogonalEdgeStyle;rounded=0;orthogonalLoop=1;jettySize=auto;html=1;entryX=0;entryY=0.5;entryDx=0;entryDy=0;" edge="1" parent="1" source="tW2J5uv5h3DvpU_1txgO-1" target="tW2J5uv5h3DvpU_1txgO-4">
          <mxGeometry relative="1" as="geometry" />
        </mxCell>
        <mxCell id="tW2J5uv5h3DvpU_1txgO-1" value="Synapse Portal" style="rounded=0;whiteSpace=wrap;html=1;" vertex="1" parent="1">
          <mxGeometry x="340" y="220" width="120" height="60" as="geometry" />
        </mxCell>
        <mxCell id="tW2J5uv5h3DvpU_1txgO-2" value="Actor" style="shape=umlActor;verticalLabelPosition=bottom;verticalAlign=top;html=1;outlineConnect=0;" vertex="1" parent="1">
          <mxGeometry x="120" y="210" width="30" height="60" as="geometry" />
        </mxCell>
        <mxCell id="tW2J5uv5h3DvpU_1txgO-3" value="Publish on UI" style="endArrow=classic;html=1;rounded=0;" edge="1" parent="1" target="tW2J5uv5h3DvpU_1txgO-1">
          <mxGeometry width="50" height="50" relative="1" as="geometry">
            <mxPoint x="180" y="240" as="sourcePoint" />
            <mxPoint x="230" y="190" as="targetPoint" />
          </mxGeometry>
        </mxCell>
        <mxCell id="tW2J5uv5h3DvpU_1txgO-7" style="edgeStyle=orthogonalEdgeStyle;rounded=0;orthogonalLoop=1;jettySize=auto;html=1;" edge="1" parent="1" source="tW2J5uv5h3DvpU_1txgO-4">
          <mxGeometry relative="1" as="geometry">
            <mxPoint x="910" y="250" as="targetPoint" />
          </mxGeometry>
        </mxCell>
        <mxCell id="tW2J5uv5h3DvpU_1txgO-4" value="ARM Templates" style="rounded=0;whiteSpace=wrap;html=1;" vertex="1" parent="1">
          <mxGeometry x="510" y="220" width="120" height="60" as="geometry" />
        </mxCell>
        <mxCell id="tW2J5uv5h3DvpU_1txgO-6" value="Github&lt;div&gt;publish_new&lt;/div&gt;" style="endArrow=none;dashed=1;html=1;dashPattern=1 3;strokeWidth=2;rounded=0;" edge="1" parent="1">
          <mxGeometry width="50" height="50" relative="1" as="geometry">
            <mxPoint x="910" y="600" as="sourcePoint" />
            <mxPoint x="910" y="40" as="targetPoint" />
          </mxGeometry>
        </mxCell>
        <mxCell id="tW2J5uv5h3DvpU_1txgO-11" style="edgeStyle=orthogonalEdgeStyle;rounded=0;orthogonalLoop=1;jettySize=auto;html=1;entryX=0;entryY=0.5;entryDx=0;entryDy=0;" edge="1" parent="1" source="tW2J5uv5h3DvpU_1txgO-8" target="tW2J5uv5h3DvpU_1txgO-10">
          <mxGeometry relative="1" as="geometry" />
        </mxCell>
        <mxCell id="tW2J5uv5h3DvpU_1txgO-8" value="Generate Artifacts" style="rounded=0;whiteSpace=wrap;html=1;" vertex="1" parent="1">
          <mxGeometry x="340" y="410" width="120" height="60" as="geometry" />
        </mxCell>
        <mxCell id="tW2J5uv5h3DvpU_1txgO-9" value="" style="endArrow=classic;html=1;rounded=0;entryX=0;entryY=0.5;entryDx=0;entryDy=0;" edge="1" parent="1" target="tW2J5uv5h3DvpU_1txgO-8">
          <mxGeometry width="50" height="50" relative="1" as="geometry">
            <mxPoint x="180" y="240" as="sourcePoint" />
            <mxPoint x="850" y="550" as="targetPoint" />
          </mxGeometry>
        </mxCell>
        <mxCell id="tW2J5uv5h3DvpU_1txgO-14" style="edgeStyle=orthogonalEdgeStyle;rounded=0;orthogonalLoop=1;jettySize=auto;html=1;" edge="1" parent="1" source="tW2J5uv5h3DvpU_1txgO-10" target="tW2J5uv5h3DvpU_1txgO-13">
          <mxGeometry relative="1" as="geometry" />
        </mxCell>
        <mxCell id="tW2J5uv5h3DvpU_1txgO-10" value="ARM Templates" style="rounded=0;whiteSpace=wrap;html=1;" vertex="1" parent="1">
          <mxGeometry x="510" y="410" width="120" height="60" as="geometry" />
        </mxCell>
        <mxCell id="tW2J5uv5h3DvpU_1txgO-21" style="edgeStyle=orthogonalEdgeStyle;rounded=0;orthogonalLoop=1;jettySize=auto;html=1;entryX=0;entryY=0.5;entryDx=0;entryDy=0;" edge="1" parent="1" source="tW2J5uv5h3DvpU_1txgO-13" target="tW2J5uv5h3DvpU_1txgO-20">
          <mxGeometry relative="1" as="geometry" />
        </mxCell>
        <mxCell id="tW2J5uv5h3DvpU_1txgO-13" value="Github runner&lt;div&gt;(VM)&lt;/div&gt;" style="rounded=0;whiteSpace=wrap;html=1;" vertex="1" parent="1">
          <mxGeometry x="707" y="410" width="120" height="60" as="geometry" />
        </mxCell>
        <mxCell id="tW2J5uv5h3DvpU_1txgO-17" value="" style="endArrow=none;dashed=1;html=1;rounded=0;" edge="1" parent="1">
          <mxGeometry width="50" height="50" relative="1" as="geometry">
            <mxPoint x="680" y="600" as="sourcePoint" />
            <mxPoint x="680" y="40" as="targetPoint" />
          </mxGeometry>
        </mxCell>
        <mxCell id="tW2J5uv5h3DvpU_1txgO-20" value="Synapse CI/CD&lt;div&gt;Deployment&lt;/div&gt;" style="rounded=0;whiteSpace=wrap;html=1;" vertex="1" parent="1">
          <mxGeometry x="950" y="410" width="120" height="60" as="geometry" />
        </mxCell>
      </root>
    </mxGraphModel>
  </diagram>
</mxfile>
